# xmcd
# 
# Track frame offsets:
#     150
#     33190
#     56340
#     73577
#     89982
#     116372
#     141485
#     162037
#     186492
# 
# Disc length: 2750
# 
# Revision: 24
# Processed by: cddbd v1.5.2PL0 Copyright (c) Steve Scherf et al.
# Submitted via: BonkEnc v1.0.6
# 
DISCID=7f0abc09
DTITLE=Sade - Love Deluxe
DYEAR=1992
DGENRE=Blues
TTITLE0=No Ordinary Love
TTITLE1=Feel No Pain
TTITLE2=I Couldn't Love You More
TTITLE3=Like A Tattoo
TTITLE4=Kiss Of Life
TTITLE5=Cherish The Day
TTITLE6=Pearls
TTITLE7=Bullet Proof Soul
TTITLE8=Mermaid
EXTD=\n YEAR: 1992 ID3G:   0
EXTT0=
EXTT1=
EXTT2=
EXTT3=
EXTT4=
EXTT5=
EXTT6=
EXTT7=
EXTT8=
PLAYORDER=
